<svg xmlns="http://www.w3.org/2000/svg" width="17.714" height="15.5" viewBox="0 0 17.714 15.5">
  <path id="Icon_awesome-camera" data-name="Icon awesome-camera" d="M17.714,6.125v9.964a1.661,1.661,0,0,1-1.661,1.661H1.661A1.661,1.661,0,0,1,0,16.089V6.125A1.661,1.661,0,0,1,1.661,4.464H4.705l.426-1.138A1.658,1.658,0,0,1,6.684,2.25h4.342A1.658,1.658,0,0,1,12.58,3.326l.429,1.138h3.045A1.661,1.661,0,0,1,17.714,6.125Zm-4.705,4.982a4.152,4.152,0,1,0-4.152,4.152A4.155,4.155,0,0,0,13.009,11.107Zm-1.107,0A3.045,3.045,0,1,1,8.857,8.063,3.049,3.049,0,0,1,11.9,11.107Z" transform="translate(0 -2.25)" fill="#fafafa" opacity="0.999"/>
</svg>
